<svg width="122.88" height="85.75" xmlns="http://www.w3.org/2000/svg" data-name="Layer 1">

 <title>data-analysis</title>
 <g>
  <title>Layer 1</title>
  <path id="svg_1" fill-rule="evenodd" d="m114.69,36.31l0,48a1.45,1.45 0 0 1 -1.44,1.44l-12.41,0a1.45,1.45 0 0 1 -1.44,-1.44l0,-35.7c2.54,-2.48 5.65,-5.48 8.83,-8.54l5,-4.82a12.84,12.84 0 0 0 1.45,1.06l0.01,0zm-84.56,-13a20.9,20.9 0 0 0 -8.08,1l-0.06,0a20.87,20.87 0 0 0 -13.65,24.47a20.45,20.45 0 0 0 1.79,4.93l-9.82,9.4a1,1 0 0 0 0,1.41l5.56,5.82a1,1 0 0 0 1.41,0l9.45,-9.12a20.78,20.78 0 0 0 4.63,2.47a21.48,21.48 0 0 0 6,1.3a20.9,20.9 0 0 0 21.15,-27.48l0,0a20.86,20.86 0 0 0 -18.38,-14.17l0,-0.03zm-12.38,8.31a16.65,16.65 0 0 1 23.52,1.6l0,0.05a16.7,16.7 0 0 1 3.19,5.59l0,0a16.71,16.71 0 0 1 -10.46,21.14a16.8,16.8 0 0 1 -6.44,0.82a16.44,16.44 0 0 1 -6.28,-1.69l0,0a16.7,16.7 0 0 1 -5.1,-4l-0.05,-0.06a16.63,16.63 0 0 1 -3.2,-5.59l0,-0.05a16.71,16.71 0 0 1 -0.8,-6.39a16.62,16.62 0 0 1 5.66,-11.43l-0.04,0.01zm28.59,-8.08l11,-9.6c7.26,7.12 14.3,15.72 21.49,22.82l26.17,-26.33l-8.45,-8.43l26.33,-2l-1.48,26.83l-8.1,-8.1c-5.81,5.89 -19.55,18.86 -25.37,24.68c-7.35,7.35 -10.86,7.49 -18.21,0.13l-12.42,-13.81l-3.86,3.42a28.54,28.54 0 0 0 -1.37,-2.7a26.3,26.3 0 0 0 -3,-4.18l0,0a26.43,26.43 0 0 0 -2.77,-2.72l0.04,-0.01zm18.42,31.34l0,29.43a1.45,1.45 0 0 1 -1.44,1.44l-12.41,0a1.45,1.45 0 0 1 -1.44,-1.44l0,-21.39a29,29 0 0 0 2.12,-2.44a27.34,27.34 0 0 0 2.91,-4.66a27.33,27.33 0 0 0 2.65,-8.6l3.31,3.68l0.43,0.45a50.63,50.63 0 0 0 3.87,3.53zm-25,14.5l0,14.93a1.45,1.45 0 0 1 -1.44,1.44l-12.38,0a1.45,1.45 0 0 1 -1.44,-1.44l0,-13.38a29.79,29.79 0 0 0 3.08,0.38a28.48,28.48 0 0 0 10.78,-1.4c0.48,-0.17 1,-0.34 1.43,-0.53l-0.03,0zm49.96,-12.31l0,27.24a1.45,1.45 0 0 1 -1.44,1.44l-12.41,0a1.45,1.45 0 0 1 -1.44,-1.44l0,-24.4a19.22,19.22 0 0 0 4.54,0.46a19.79,19.79 0 0 0 10.75,-3.3z" class="cls-1"/>
 </g>
</svg>